PathFileType  4	(X/Y/Z) C:\Inversekin\DARPA\DARPA11\Files_W_HJCs\
DataRate	CameraRate	NumFrames	NumMarkers	Units	OrigDataRate	OrigDataStartFrame	OrigNumFrames
  100.0		  100.0		    8		     41		 mm	  100.0	      134	    153
Frame#	Time	R.Shoulder			L.Shoulder			R.Clavicle			L.Clavicle			R.Biceps			R.Elbow			R.Forearm			R.Wrist			L.Biceps			L.Elbow			L.Forearm			L.Wrist			R.ASIS			L.ASIS			R.PSIS			S2			L.PSIS			R.TH1			R.TH2			R.TH3			R.Knee			R.SH1			R.SH2			R.SH3			R.SH4			R.Ankle			R.Heel			R.MT5			R.Toe			L.TH1			L.TH2			L.TH3			L.TH4			L.Knee			L.SH1			L.SH2			L.SH3			L.Ankle			L.Heel			L.MT5			L.Toe			
		X1	Y1	Z1	X2	Y2	Z2	X3	Y3	Z3	X4	Y4	Z4	X5	Y5	Z5	X6	Y6	Z6	X7	Y7	Z7	X8	Y8	Z8	X9	Y9	Z9	X10	Y10	Z10	X11	Y11	Z11	X12	Y12	Z12	X13	Y13	Z13	X14	Y14	Z14	X15	Y15	Z15	X16	Y16	Z16	X17	Y17	Z17	X18	Y18	Z18	X19	Y19	Z19	X20	Y20	Z20	X21	Y21	Z21	X22	Y22	Z22	X23	Y23	Z23	X24	Y24	Z24	X25	Y25	Z25	X26	Y26	Z26	X27	Y27	Z27	X28	Y28	Z28	X29	Y29	Z29	X30	Y30	Z30	X31	Y31	Z31	X32	Y32	Z32	X33	Y33	Z33	X34	Y34	Z34	X35	Y35	Z35	X36	Y36	Z36	X37	Y37	Z37	X38	Y38	Z38	X39	Y39	Z39	X40	Y40	Z40	X41	Y41	Z41	

134	1.33000	409.441	1565.646	-303.545	677.347	1568.023	-294.283	508.541	1507.312	-196.689	564.453	1508.981	-194.013	203.972	1575.309	-317.270	115.899	1602.195	-364.294	113.858	1592.468	-212.141	104.608	1576.787	-97.334	857.930	1550.584	-312.565	979.307	1555.082	-321.960	984.870	1575.788	-177.840	978.479	1576.397	-66.928	407.910	1022.334	-161.210	663.593	1012.109	-178.615	478.076	1035.647	-376.862	521.127	1014.246	-393.392	569.852	1033.305	-382.931	314.539	795.924	-206.146	309.498	790.595	-314.893	322.623	662.078	-318.646	326.030	528.929	-277.019	308.327	437.286	-267.531	288.787	326.564	-274.108	305.588	438.326	-351.737	293.451	318.828	-358.821	294.927	113.925	-314.069	337.558	37.662	-391.010	252.387	34.114	-201.118	351.027	56.122	-91.538	708.740	793.598	-173.120	701.564	662.556	-185.942	751.790	810.896	-269.376	734.973	678.737	-298.755	710.462	531.410	-296.745	716.690	426.592	-274.169	738.935	445.358	-366.936	747.369	329.623	-380.960	753.213	115.454	-331.625	706.908	35.978	-416.528	801.737	39.364	-231.002	713.006	58.048	-120.721
135	1.34000	409.370	1565.654	-303.811	677.060	1568.047	-294.390	508.406	1507.385	-196.821	564.409	1509.011	-194.095	204.068	1575.507	-317.678	115.953	1602.457	-364.868	113.993	1592.779	-212.774	104.313	1577.334	-97.874	857.813	1550.738	-312.753	979.043	1555.407	-322.391	984.657	1576.660	-178.147	978.370	1577.189	-67.326	407.802	1022.353	-161.282	663.562	1012.139	-178.645	477.945	1035.683	-376.908	521.024	1014.124	-393.446	569.800	1033.288	-382.992	314.510	795.794	-206.216	309.479	790.479	-314.963	322.625	662.017	-318.670	326.023	528.834	-277.033	308.207	437.236	-267.535	288.697	326.480	-274.105	305.560	438.229	-351.740	293.411	318.783	-358.828	294.911	113.895	-314.064	337.457	37.579	-391.009	252.370	34.112	-201.102	350.892	56.092	-91.548	708.723	793.687	-173.137	701.665	662.511	-186.002	751.778	810.973	-269.402	734.979	678.831	-298.802	710.485	531.482	-296.762	716.759	426.689	-274.249	738.894	445.446	-366.978	747.323	329.607	-381.003	753.180	115.528	-331.632	706.825	35.963	-416.511	801.717	39.414	-231.017	712.832	58.008	-120.747
136	1.35000	409.298	1565.596	-304.047	676.775	1568.108	-294.557	508.340	1507.375	-196.985	564.391	1509.090	-194.200	203.933	1575.748	-318.140	115.984	1602.570	-365.317	113.664	1593.241	-213.376	104.077	1577.853	-98.405	857.647	1550.957	-312.993	978.639	1555.755	-322.797	984.415	1577.287	-178.619	978.366	1578.106	-67.743	407.802	1022.218	-161.405	663.509	1012.283	-178.643	477.798	1035.612	-377.003	520.909	1014.096	-393.528	569.576	1033.289	-383.068	314.389	795.672	-206.286	309.475	790.345	-315.041	322.554	661.894	-318.734	326.016	528.779	-277.065	308.157	437.144	-267.543	288.652	326.429	-274.127	305.513	438.152	-351.752	293.356	318.602	-358.826	294.864	113.764	-314.065	337.376	37.514	-391.014	252.326	33.975	-201.121	350.735	56.098	-91.562	708.692	793.815	-173.143	701.522	662.636	-185.981	751.736	811.100	-269.448	734.946	678.958	-298.855	710.454	531.562	-296.823	716.722	426.791	-274.270	738.836	445.497	-367.024	747.249	329.734	-381.028	753.116	115.670	-331.682	706.620	35.863	-416.546	801.684	39.513	-231.010	712.757	58.031	-120.740
137	1.36000	409.321	1565.554	-304.295	676.535	1568.138	-294.721	508.297	1507.335	-197.100	564.349	1509.138	-194.303	203.928	1575.872	-318.532	116.168	1602.585	-365.811	113.868	1593.533	-213.846	104.041	1578.478	-98.871	857.355	1551.103	-313.245	978.436	1556.112	-323.112	984.250	1578.004	-179.134	978.269	1579.246	-68.301	407.671	1022.124	-161.482	663.442	1012.404	-178.674	477.785	1035.557	-377.057	520.836	1014.014	-393.543	569.444	1033.250	-383.114	314.328	795.572	-206.398	309.444	790.193	-315.144	322.513	661.727	-318.788	326.040	528.576	-277.115	308.104	437.010	-267.582	288.601	326.297	-274.156	305.480	438.036	-351.782	293.332	318.514	-358.855	294.808	113.637	-314.079	337.302	37.375	-391.028	252.301	33.865	-201.141	350.585	56.078	-91.569	708.559	793.811	-173.211	701.506	662.688	-186.012	751.735	811.271	-269.446	734.956	679.037	-298.860	710.462	531.760	-296.822	716.677	426.866	-274.299	738.774	445.627	-367.039	747.171	329.825	-381.071	753.108	115.679	-331.683	706.429	35.832	-416.562	801.653	39.568	-231.005	712.531	58.012	-120.773
138	1.37000	409.464	1565.572	-304.518	676.377	1568.122	-294.928	508.167	1507.399	-197.251	564.967	1508.754	-195.007	204.087	1575.927	-318.901	116.216	1602.740	-366.429	113.697	1593.832	-214.333	103.597	1579.235	-99.424	857.062	1551.414	-313.612	978.166	1556.701	-323.461	983.996	1578.774	-179.472	977.770	1580.039	-68.630	407.573	1021.999	-161.589	663.396	1012.411	-178.675	477.670	1035.413	-377.142	520.787	1013.943	-393.604	569.319	1033.222	-383.157	314.287	795.440	-206.506	309.443	790.095	-315.241	322.596	661.471	-318.933	326.023	528.499	-277.173	308.060	436.931	-267.625	288.556	326.211	-274.199	305.455	437.946	-351.813	293.296	318.351	-358.881	294.819	113.436	-314.142	337.086	37.382	-391.012	252.158	33.785	-201.125	350.419	56.102	-91.579	708.522	793.897	-173.202	701.464	662.787	-186.028	751.729	811.417	-269.430	734.927	679.130	-298.907	710.438	531.802	-296.867	716.640	426.911	-274.313	738.757	445.668	-367.064	747.096	329.937	-381.089	753.072	115.780	-331.709	706.306	35.780	-416.577	801.608	39.675	-231.003	712.486	58.035	-120.773
139	1.38000	409.555	1565.589	-304.729	676.336	1568.145	-295.132	507.863	1507.901	-198.567	564.088	1509.207	-194.652	204.028	1576.209	-319.377	116.226	1602.969	-366.995	113.624	1594.289	-214.899	103.424	1579.816	-99.825	856.646	1551.813	-314.004	978.099	1557.597	-323.901	983.862	1579.696	-179.811	977.836	1580.996	-68.820	407.498	1021.950	-161.723	663.303	1012.587	-178.650	477.644	1035.381	-377.189	520.753	1014.010	-393.664	569.345	1033.289	-383.223	314.239	795.379	-206.598	309.436	790.028	-315.337	322.559	661.325	-319.033	326.027	528.413	-277.233	307.928	436.895	-267.695	288.510	326.120	-274.246	305.442	437.899	-351.857	293.308	318.328	-358.929	294.817	113.311	-314.199	337.046	37.282	-391.001	252.148	33.723	-201.140	350.307	56.144	-91.594	708.476	794.010	-173.187	701.408	662.846	-186.023	751.721	811.368	-269.435	734.933	679.226	-298.870	710.432	531.946	-296.881	716.512	426.978	-274.288	738.715	445.733	-367.088	747.066	329.963	-381.125	753.058	115.779	-331.699	706.236	35.806	-416.589	801.569	39.754	-230.968	712.412	58.057	-120.785
140	1.39000	409.577	1565.588	-304.935	676.417	1568.225	-295.419	508.111	1507.661	-198.650	564.012	1509.229	-194.809	204.177	1576.249	-319.827	116.230	1603.118	-367.365	113.634	1594.720	-215.343	103.452	1580.442	-100.308	856.458	1552.224	-314.299	977.899	1558.263	-324.194	983.582	1580.418	-180.147	977.941	1582.015	-69.195	407.454	1021.950	-161.819	663.296	1012.480	-178.654	477.772	1035.355	-377.250	520.966	1013.897	-393.686	569.391	1033.338	-383.253	314.136	795.484	-206.722	309.548	789.934	-315.524	322.540	661.324	-319.154	325.922	528.490	-277.337	307.823	436.932	-267.765	288.495	326.118	-274.303	305.440	437.881	-351.906	293.303	318.308	-358.980	294.817	113.312	-314.230	337.000	37.282	-391.021	252.134	33.748	-201.135	350.310	56.132	-91.600	708.463	793.953	-173.208	701.362	662.926	-186.022	751.747	811.433	-269.406	734.917	679.152	-298.869	710.418	531.960	-296.916	716.504	426.994	-274.295	738.711	445.701	-367.095	746.903	329.955	-381.158	753.048	115.773	-331.682	706.210	35.881	-416.583	801.581	39.762	-230.978	712.292	58.109	-120.810
141	1.40000	409.683	1565.658	-305.169	676.466	1568.314	-295.668	508.248	1507.783	-198.860	563.748	1509.197	-194.976	204.307	1576.547	-320.208	116.504	1603.285	-367.809	113.580	1595.304	-215.757	103.416	1581.215	-100.791	856.285	1552.716	-314.620	977.647	1558.902	-324.379	983.759	1581.160	-180.351	978.027	1582.818	-69.493	407.333	1022.027	-161.917	663.240	1012.570	-178.626	477.823	1035.410	-377.312	521.055	1014.010	-393.721	569.520	1033.399	-383.276	314.124	795.546	-206.828	309.589	790.021	-315.610	322.585	661.406	-319.236	325.904	528.602	-277.398	307.785	436.898	-267.852	288.424	326.243	-274.379	305.457	437.904	-351.966	293.427	318.291	-359.046	294.820	113.366	-314.241	337.146	37.280	-391.018	252.136	33.811	-201.125	350.334	56.205	-91.606	708.402	794.086	-173.160	701.328	662.889	-186.002	751.739	811.383	-269.404	734.920	679.195	-298.821	710.416	531.959	-296.910	716.515	426.951	-274.329	738.688	445.771	-367.099	747.028	330.048	-381.151	753.050	115.769	-331.691	706.318	35.963	-416.584	801.582	39.776	-230.965	712.435	58.143	-120.790
